# xmcd CD database file
#
# Track frame offsets:
#	150
#	51985
#	115145
#	177592
#
# Disc length: 3034 seconds
#
# Revision: 8
# Processed by: cddbd v1.5.2PL0 Copyright (c) Steve Scherf et al.
# Submitted via: CDex 1.51
#
DISCID=340bd804
DTITLE=Ultimate Relaxation - The Sea
DYEAR=2004
DGENRE=New Age
TTITLE0=Encounters
TTITLE1=Far Far Away
TTITLE2=Mystic Voyage
TTITLE3=Sweet Inspiration
EXTD=YEAR: 2004
EXTT0=
EXTT1=
EXTT2=
EXTT3=
PLAYORDER=
